<?xml version="1.0" encoding="UTF-8"?>
<svg role="img" aria-label="one to many" width="320" height="280.0" viewBox="0 0 640 560" xmlns="http://www.w3.org/2000/svg"><defs><clipPath id="cc-one-to-many"><path d="M-40 -40 H560 V340 H226 V480 H-40 Z"/></clipPath></defs><g transform="translate(90 70)"><g clip-path="url(#cc-one-to-many)"><path d="M100.636 111.663C106.88 89.4209 120.984 65.2939 137.044 48.7509C166.817 17.6669 207.976 0.0648927 251.02 0.00689272C296.26 -0.396107 333.68 16.8869 365.62 48.1099C361.39 48.6739 362.89 48.2299 359.3 51.9819C326.8 21.9039 291.96 5.52194 246.62 7.11694C205.968 8.26794 167.542 25.9549 140.227 56.0889C124.645 73.0319 112.191 95.3759 106.426 117.688C70.8806 124.498 47.5076 133.343 25.4986 164.715C9.30761 187.793 3.53058 220.795 9.13758 248.358C14.8296 276.342 31.3896 301.244 55.3296 317.211C65.1466 323.761 81.0206 330.081 93.3926 331.801C120.698 335.591 141.689 328.321 152.194 360.431C160.507 385.831 133.919 429.891 134.445 433.481C141.13 436.891 155.259 426.701 160.986 422.961C185.59 406.901 203.869 386.711 220.02 362.391C234.79 365.271 270.52 370.301 282.81 358.681L282.49 357.221C274.53 353.031 258.6 355.301 249.65 356.181C246.75 353.901 245.09 353.191 241.84 351.561C244.73 351.451 247.49 351.511 250.27 350.781L245.08 349.991C255.53 348.031 279.02 344.711 288.1 351.841C293.52 356.101 288.91 363.731 283.89 366.481C266.05 376.251 241.9 373.761 222.74 369.951C210.513 393.201 184.293 416.021 162.285 430.491C156.529 434.281 126.052 453.741 127.073 431.431C127.198 428.721 133.303 417.511 134.816 414.311C142.199 398.731 148.526 380.961 145.655 363.461C140.651 335.411 111.976 342.591 91.1296 338.731C76.5256 336.011 62.6146 330.401 50.2146 322.221C-12.8624 280.892 -17.1374 184.702 40.9236 137.38C60.0316 121.807 77.1106 116.368 100.636 111.663Z" fill="#191A19"/><path d="M359.299 51.9814C362.889 48.2294 361.389 48.6734 365.619 48.1094C381.379 65.2344 393.769 84.4184 401.319 106.571C409.829 109.766 417.599 112.668 425.679 116.947C476.579 143.904 499.059 206.909 476.859 260.353C472.249 257.89 473.389 255.539 473.219 250.668C491.149 185.822 459.159 132.566 395.959 112.727C386.309 87.4564 378.259 71.9604 359.299 51.9814Z" fill="#191A19"/><path d="M476.858 260.353C467.138 286.886 441.428 312.42 414.718 322.28C408.798 324.47 394.838 330.81 390.238 325.47L390.598 322.79C393.688 320.16 399.298 319.93 403.428 318.7C438.308 308.3 460.598 284.112 473.218 250.668C473.388 255.539 472.248 257.89 476.858 260.353Z" fill="#191A19"/></g><g fill="#191A19"><g transform="translate(190 196) scale(1.5) translate(-190 -196)"><g fill="#191A19"><path d="M189.8 205.6 L205.1 215.1 L176.2 253.7 L162.7 245.2 Z"/></g><path fill="#F0F0EC" d="M165.6 157.5 L193.6 165.5 L322.5 189.5 L254.7 298.0 L176.7 192.7 L156.1 172.7 Z"/><path d="M165.0 159.6 L193.1 168.3 L319.0 191.1 L254.6 294.2 L179.0 190.8 L158.7 171.9 L167.5 158.6 L163.8 156.3 L153.5 173.5 L174.3 194.5 L254.8 301.9 L326.0 187.9 L194.2 162.8 L166.2 155.4 Z"/><circle cx="165.6" cy="157.5" r="2.06"/><circle cx="165.6" cy="157.5" r="2.06"/><path fill="#F0F0EC" d="M307.3 255.4 L305.5 258.2 L303.6 261.0 L301.7 263.7 L299.8 266.4 L297.8 269.1 L295.9 271.6 L293.9 274.1 L291.9 276.5 L289.8 278.8 L287.8 281.0 L285.8 283.1 L283.8 285.1 L281.8 287.0 L279.8 288.7 L277.8 290.4 L275.9 291.9 L274.0 293.3 L272.1 294.5 L270.3 295.6 L268.6 296.6 L266.9 297.4 L265.2 298.1 L263.6 298.6 L262.1 299.0 L260.7 299.2 L259.3 299.3 L258.0 299.2 L256.8 298.9 L255.7 298.6 L254.7 298.0 L253.8 297.3 L252.9 296.5 L252.2 295.5 L251.6 294.4 L251.0 293.2 L250.6 291.8 L250.3 290.2 L250.0 288.6 L249.9 286.8 L249.9 284.9 L250.0 282.9 L250.2 280.8 L250.5 278.6 L250.9 276.3 L251.4 273.9 L252.0 271.4 L252.8 268.8 L253.6 266.2 L254.5 263.5 L255.5 260.8 L256.6 258.0 L257.8 255.2 L259.0 252.3 L260.4 249.4 L261.8 246.5 L263.3 243.6 L264.9 240.7 L266.5 237.8 L268.2 234.9 L269.9 232.1 L271.7 229.3 L273.6 226.5 L275.5 223.7 L277.4 221.1 L279.4 218.4 L281.3 215.9 L283.3 213.4 L285.4 211.0 L287.4 208.7 L289.4 206.5 L291.4 204.4 L293.4 202.4 L295.4 200.5 L297.4 198.8 L299.4 197.1 L301.3 195.6 L303.2 194.2 L305.1 193.0 L306.9 191.9 L308.6 190.9 L310.4 190.1 L312.0 189.4 L313.6 188.9 L315.1 188.5 L316.5 188.3 L317.9 188.2 L319.2 188.3 L320.4 188.5 L321.5 188.9 L322.5 189.5 L323.4 190.2 L324.3 191.0 L325.0 192.0 L325.7 193.1 L326.2 194.3 L326.6 195.7 L327.0 197.3 L327.2 198.9 L327.3 200.7 L327.3 202.6 L327.2 204.6 L327.0 206.7 L326.7 208.9 L326.3 211.2 L325.8 213.6 L325.2 216.1 L324.4 218.6 L323.6 221.3 L322.7 224.0 L321.7 226.7 L320.6 229.5 L319.4 232.3 L318.2 235.2 L316.8 238.1 L315.4 241.0 L313.9 243.9 L312.3 246.8 L310.7 249.7 L309.0 252.5 L307.3 255.4 Z"/><path fill-rule="evenodd" d="M303.9 253.3 L302.1 256.1 L300.3 258.8 L298.5 261.5 L296.6 264.1 L294.7 266.6 L292.8 269.1 L290.8 271.6 L288.9 273.9 L286.9 276.2 L285.0 278.3 L283.0 280.4 L281.1 282.3 L279.2 284.1 L277.3 285.8 L275.4 287.4 L273.6 288.9 L271.8 290.2 L270.1 291.4 L268.5 292.4 L266.9 293.3 L265.4 294.1 L263.9 294.7 L262.6 295.1 L261.4 295.4 L260.3 295.6 L259.3 295.7 L258.5 295.6 L257.8 295.5 L257.1 295.3 L256.6 295.0 L256.1 294.6 L255.6 294.2 L255.2 293.6 L254.7 292.8 L254.3 291.9 L254.0 290.9 L253.7 289.6 L253.5 288.2 L253.4 286.7 L253.4 285.0 L253.5 283.2 L253.7 281.2 L254.0 279.1 L254.4 277.0 L254.9 274.7 L255.5 272.3 L256.2 269.9 L257.0 267.3 L257.9 264.7 L258.9 262.1 L260.0 259.4 L261.2 256.6 L262.4 253.9 L263.8 251.1 L265.2 248.2 L266.7 245.4 L268.3 242.6 L269.9 239.8 L271.6 237.0 L273.3 234.2 L275.1 231.4 L276.9 228.7 L278.7 226.0 L280.6 223.4 L282.5 220.8 L284.5 218.3 L286.4 215.9 L288.3 213.6 L290.3 211.3 L292.3 209.2 L294.2 207.1 L296.1 205.2 L298.0 203.4 L299.9 201.7 L301.8 200.1 L303.6 198.6 L305.4 197.3 L307.1 196.1 L308.7 195.1 L310.3 194.2 L311.8 193.4 L313.3 192.8 L314.6 192.4 L315.8 192.1 L316.9 191.9 L317.9 191.8 L318.7 191.9 L319.5 192.0 L320.1 192.2 L320.6 192.5 L321.1 192.9 L321.6 193.3 L322.0 193.9 L322.5 194.6 L322.9 195.6 L323.2 196.6 L323.5 197.9 L323.7 199.3 L323.8 200.8 L323.8 202.5 L323.7 204.3 L323.5 206.3 L323.2 208.3 L322.8 210.5 L322.3 212.8 L321.7 215.2 L321.0 217.6 L320.2 220.2 L319.3 222.8 L318.3 225.4 L317.2 228.1 L316.0 230.9 L314.8 233.6 L313.4 236.4 L312.0 239.3 L310.5 242.1 L309.0 244.9 L307.3 247.7 L305.7 250.5 L303.9 253.4 Z M310.6 257.5 L312.4 254.6 L314.1 251.6 L315.7 248.6 L317.3 245.6 L318.8 242.7 L320.2 239.7 L321.6 236.7 L322.8 233.8 L324.0 230.9 L325.1 228.0 L326.1 225.2 L327.1 222.4 L327.9 219.7 L328.6 217.0 L329.2 214.4 L329.8 211.9 L330.2 209.5 L330.5 207.1 L330.7 204.8 L330.8 202.6 L330.8 200.6 L330.7 198.6 L330.4 196.6 L330.0 194.8 L329.5 193.1 L328.8 191.5 L328.0 190.0 L327.0 188.7 L325.8 187.4 L324.4 186.4 L322.9 185.6 L321.3 185.1 L319.6 184.7 L317.9 184.6 L316.2 184.7 L314.4 185.0 L312.6 185.4 L310.7 186.0 L308.9 186.7 L307.0 187.6 L305.0 188.7 L303.1 189.8 L301.1 191.2 L299.0 192.6 L297.0 194.2 L294.9 195.9 L292.9 197.7 L290.8 199.6 L288.7 201.7 L286.6 203.8 L284.5 206.1 L282.4 208.4 L280.3 210.9 L278.2 213.4 L276.2 216.0 L274.2 218.7 L272.2 221.5 L270.3 224.3 L268.4 227.1 L266.6 230.0 L264.8 232.9 L263.1 235.9 L261.5 238.9 L259.9 241.8 L258.4 244.8 L257.0 247.8 L255.6 250.8 L254.4 253.7 L253.2 256.6 L252.1 259.5 L251.1 262.3 L250.1 265.1 L249.3 267.8 L248.6 270.5 L248.0 273.1 L247.4 275.6 L247.0 278.0 L246.7 280.4 L246.5 282.7 L246.4 284.8 L246.4 286.9 L246.5 288.9 L246.8 290.8 L247.2 292.7 L247.7 294.4 L248.4 296.0 L249.2 297.5 L250.2 298.8 L251.4 300.0 L252.8 301.0 L254.3 301.8 L255.9 302.4 L257.6 302.7 L259.3 302.9 L261.0 302.8 L262.8 302.5 L264.6 302.1 L266.5 301.5 L268.3 300.7 L270.2 299.8 L272.2 298.8 L274.1 297.6 L276.1 296.3 L278.2 294.9 L280.2 293.3 L282.3 291.6 L284.3 289.8 L286.4 287.9 L288.5 285.8 L290.6 283.7 L292.7 281.4 L294.8 279.0 L296.9 276.6 L299.0 274.1 L301.0 271.5 L303.0 268.8 L305.0 266.0 L306.9 263.2 L308.8 260.4 L310.6 257.5 Z"/><g fill="#191A19"><path d="M159.3 148.8 L170.5 153.4 L154.6 178.9 L145.5 170.8 Z"/></g><path d="M367.8 215.4 L367.1 220.2 L366.3 225.1 L365.4 230.1 L364.2 235.0 L362.9 240.0 L361.4 245.0 L359.7 250.1 L357.8 255.0 L355.7 260.0 L353.4 264.9 L351.0 269.8 L348.3 274.6 L345.5 279.3 L342.6 283.9 L339.5 288.4 L336.2 292.8 L332.8 297.0 L329.2 301.1 L325.6 305.0 L321.8 308.7 L318.0 312.3 L314.0 315.7 L310.0 318.8 L306.0 321.8 L301.9 324.6 L297.8 327.4 L299.5 330.3 L304.0 328.2 L308.5 325.5 L312.8 322.6 L317.1 319.5 L321.3 316.1 L325.4 312.5 L329.3 308.7 L333.2 304.7 L336.9 300.6 L340.5 296.2 L344.0 291.7 L347.3 287.1 L350.4 282.4 L353.3 277.5 L356.1 272.5 L358.7 267.5 L361.0 262.4 L363.2 257.2 L365.1 251.9 L366.7 246.7 L368.2 241.4 L369.3 236.2 L370.3 230.9 L370.9 225.7 L371.3 220.6 L371.2 215.6 Z"/><circle cx="369.5" cy="215.5" r="1.65"/><circle cx="298.7" cy="328.9" r="1.65"/><path d="M402.2 221.9 L401.0 228.9 L399.6 235.9 L397.9 242.9 L396.0 249.9 L393.7 256.9 L391.2 263.9 L388.5 270.8 L385.4 277.6 L382.1 284.4 L378.5 291.0 L374.6 297.5 L370.5 303.8 L366.1 310.0 L361.5 315.9 L356.7 321.7 L351.7 327.2 L346.5 332.5 L341.2 337.6 L335.8 342.4 L330.2 346.9 L324.5 351.2 L318.8 355.4 L320.5 358.1 L326.7 354.5 L332.8 350.4 L338.7 346.0 L344.5 341.2 L350.0 336.1 L355.4 330.7 L360.6 325.0 L365.5 319.2 L370.3 313.0 L374.7 306.7 L379.0 300.2 L383.0 293.6 L386.7 286.8 L390.1 279.8 L393.3 272.8 L396.1 265.7 L398.6 258.5 L400.7 251.2 L402.5 244.0 L403.9 236.7 L404.9 229.5 L405.4 222.3 Z"/><circle cx="403.8" cy="222.1" r="1.51"/><circle cx="319.6" cy="356.8" r="1.51"/></g></g></g><path fill="#191A19" d="M600.0 441.2 L598.4 450.8 L596.8 456.3 L594.6 460.6 L592.3 463.3 L589.3 465.4 L584.6 467.4 L578.7 468.8 L571.2 470.0 L579.7 471.4 L585.5 472.9 L589.9 474.9 L592.8 477.2 L595.1 480.1 L597.1 484.5 L598.6 490.3 L600.0 498.8 L601.4 490.3 L602.9 484.5 L604.9 480.1 L607.2 477.2 L610.1 474.9 L614.5 472.9 L620.3 471.4 L628.8 470.0 L621.3 468.8 L615.4 467.4 L610.7 465.4 L607.7 463.3 L604.9 459.9 L602.9 455.5 L601.4 449.7 Z M118.0 26.4 L115.8 37.1 L114.3 40.4 L112.6 42.6 L110.4 44.3 L107.1 45.8 L102.8 47.0 L96.4 48.0 L102.8 49.0 L107.1 50.2 L110.4 51.7 L112.6 53.4 L114.3 55.6 L115.8 58.9 L117.0 63.2 L118.0 69.6 L119.0 63.2 L120.2 58.9 L121.7 55.6 L123.4 53.4 L125.6 51.7 L128.9 50.2 L133.2 49.0 L139.6 48.0 L129.5 46.0 L126.1 44.6 L123.8 43.0 L122.0 40.9 L120.4 37.7 L119.0 32.8 Z M62.0 82.8 L59.9 95.2 L57.9 102.3 L55.1 107.8 L52.0 111.3 L48.1 114.1 L42.1 116.6 L34.4 118.5 L24.8 120.0 L35.8 121.8 L43.2 123.7 L49.0 126.4 L52.7 129.3 L55.6 133.0 L58.3 138.8 L60.2 146.2 L62.0 157.2 L63.8 146.2 L65.7 138.8 L68.4 133.0 L71.3 129.3 L75.0 126.4 L80.8 123.7 L88.2 121.8 L99.2 120.0 L89.6 118.5 L81.9 116.6 L75.9 114.1 L72.0 111.3 L68.4 107.0 L65.7 101.2 L63.8 93.8 Z"/></svg>
